<svg id="Layer_1" data-name="Layer 1" xmlns="http://www.w3.org/2000/svg" viewBox="0 0 563.79 511.76"><defs><style>.cls-1,.cls-7{fill:#272324;}.cls-2{fill:#f79654;}.cls-3{fill:#9f4941;}.cls-4{fill:#fbb03c;}.cls-5{fill:#78c148;}.cls-6{fill:#f15c27;}.cls-7{font-size:79.99px;font-family:Geometric415BT-BlackA, Geometr415 Blk BT;font-weight:800;}</style></defs><path class="cls-1" d="M389.65,242H352.08a4.8,4.8,0,1,1,0-9.59h37.57a4.8,4.8,0,1,1,0,9.59Z" transform="translate(-116.79 -118.68)"/><path class="cls-1" d="M427,242H403a4.8,4.8,0,1,1,0-9.59H427a19.12,19.12,0,0,0,.4-38.24,4.8,4.8,0,1,1,.2-9.59,28.91,28.91,0,0,1,28.2,28.7A28.76,28.76,0,0,1,427,242Z" transform="translate(-116.79 -118.68)"/><path class="cls-1" d="M414.22,194.12H352.39a23.93,23.93,0,0,1-23.93-23.87,23.9,23.9,0,0,1,23.93-23.87h84.75a9,9,0,0,0,6.43-2.65,8.94,8.94,0,0,0,2.67-6.4,9.08,9.08,0,0,0-9.1-9.05h-11.7a4.8,4.8,0,0,1,0-9.6h11.7a18.7,18.7,0,0,1,18.7,18.65A18.69,18.69,0,0,1,437.14,156H352.39a14.32,14.32,0,0,0-10.15,4.19,14.13,14.13,0,0,0-4.18,10.08,14.32,14.32,0,0,0,14.33,14.28h61.83a4.8,4.8,0,1,1,0,9.59Z" transform="translate(-116.79 -118.68)"/><path class="cls-1" d="M412.12,128.28H401.27a4.8,4.8,0,1,1,0-9.6h10.85a4.8,4.8,0,1,1,0,9.6Z" transform="translate(-116.79 -118.68)"/><path class="cls-1" d="M294.49,543.6a23.88,23.88,0,0,1-4-.35H280.13a34.1,34.1,0,0,1-34.06-34.06v-20.5a39.16,39.16,0,0,1-13.4-29.56v-1.78a39.16,39.16,0,0,1,13.4-29.56V412.54c0-84.15,68.47-152.61,152.61-152.61S551.3,328.39,551.3,412.54v15.25a39.13,39.13,0,0,1,13.4,29.56v1.78a39.16,39.16,0,0,1-13.4,29.56v20.5a34.1,34.1,0,0,1-34.06,34.06H298.53A24.24,24.24,0,0,1,294.49,543.6Z" transform="translate(-116.79 -118.68)"/><path class="cls-2" d="M145.59,363.69H418.2a0,0,0,0,1,0,0v26.82a17.75,17.75,0,0,1-17.75,17.75H163.34a17.75,17.75,0,0,1-17.75-17.75V363.69A0,0,0,0,1,145.59,363.69Z"/><path class="cls-1" d="M517.24,531.73H280.13a22.56,22.56,0,0,1-22.54-22.54V482.37a4.78,4.78,0,0,1,4.79-4.79H535a4.78,4.78,0,0,1,4.79,4.79v26.82A22.56,22.56,0,0,1,517.24,531.73ZM267.18,487.17v22a13,13,0,0,0,12.95,12.95H517.24a13,13,0,0,0,13-12.95v-22Z" transform="translate(-116.79 -118.68)"/><rect class="cls-3" x="132.19" y="315.42" width="299.4" height="48.27" rx="23.25"/><path class="cls-1" d="M525.14,487.17H272.23a28.07,28.07,0,0,1-28-28v-1.78a28.07,28.07,0,0,1,28-28H525.14a28.07,28.07,0,0,1,28,28v1.78A28.07,28.07,0,0,1,525.14,487.17ZM272.23,438.9a18.48,18.48,0,0,0-18.45,18.45v1.78a18.48,18.48,0,0,0,18.45,18.45H525.14a18.48,18.48,0,0,0,18.45-18.45v-1.78a18.48,18.48,0,0,0-18.45-18.45Z" transform="translate(-116.79 -118.68)"/><path class="cls-4" d="M338.17,482.35v22.82a8.74,8.74,0,0,1-17.47,0v-4a8.67,8.67,0,0,0-8.74-8.73,8.74,8.74,0,0,0-8.73,8.73v17.39a8.74,8.74,0,1,1-17.47,0v-36.2Z" transform="translate(-116.79 -118.68)"/><path class="cls-1" d="M294.49,532.08A13.54,13.54,0,0,1,281,518.55v-36.2a4.79,4.79,0,0,1,4.8-4.79h52.41a4.79,4.79,0,0,1,4.79,4.79v22.82a13.53,13.53,0,1,1-27.06,0v-4a4,4,0,0,0-1.14-2.8,4.08,4.08,0,0,0-2.8-1.14,4,4,0,0,0-3.94,3.94v17.39A13.55,13.55,0,0,1,294.49,532.08Zm-3.94-44.93v31.4a3.94,3.94,0,0,0,1.18,2.8,3.87,3.87,0,0,0,2.76,1.14,4,4,0,0,0,3.94-3.94V501.16a13.56,13.56,0,0,1,23.07-9.63l.09.09a13.6,13.6,0,0,1,3.9,9.54v4a3.94,3.94,0,0,0,7.88,0v-18Z" transform="translate(-116.79 -118.68)"/><polygon class="cls-4" points="390.49 309.28 268.51 368.46 146.53 309.28 268.51 268.74 390.49 309.28"/><path class="cls-1" d="M385.3,491.94a4.8,4.8,0,0,1-2.09-.48l-122-59.18a4.8,4.8,0,0,1,.58-8.87l122-40.54a4.76,4.76,0,0,1,3,0l122,40.54a4.8,4.8,0,0,1,.58,8.87l-122,59.18A4.82,4.82,0,0,1,385.3,491.94ZM276,428.79l109.27,53,109.28-53L385.3,392.48Z" transform="translate(-116.79 -118.68)"/><ellipse class="cls-5" cx="194.62" cy="315.05" rx="41.46" ry="21.95"/><path class="cls-1" d="M311.41,460.49c-25.94,0-46.26-11.75-46.26-26.75S285.47,407,311.41,407s46.26,11.75,46.26,26.75S337.35,460.49,311.41,460.49Zm0-43.91c-21.61,0-36.67,9-36.67,17.16s15.06,17.15,36.67,17.15,36.66-9,36.66-17.15S333,416.58,311.41,416.58Z" transform="translate(-116.79 -118.68)"/><ellipse class="cls-5" cx="275.09" cy="315.05" rx="41.46" ry="21.95"/><path class="cls-1" d="M391.89,460.49c-25.94,0-46.26-11.75-46.26-26.75S366,407,391.89,407s46.26,11.75,46.26,26.75S417.83,460.49,391.89,460.49Zm0-43.91c-21.61,0-36.67,9-36.67,17.16s15.06,17.15,36.67,17.15,36.66-9,36.66-17.15S413.49,416.58,391.89,416.58Z" transform="translate(-116.79 -118.68)"/><path class="cls-2" d="M281.89,157.56h0a136.3,136.3,0,0,1,136.3,136.3v21.56a0,0,0,0,1,0,0H145.59a0,0,0,0,1,0,0V293.86a136.3,136.3,0,0,1,136.3-136.3Z"/><path class="cls-1" d="M535,438.9H262.38a4.78,4.78,0,0,1-4.79-4.79V412.54c0-77.8,63.29-141.1,141.09-141.1s141.1,63.3,141.1,141.1v21.57A4.78,4.78,0,0,1,535,438.9Zm-267.81-9.59h263V412.54c0-72.51-59-131.5-131.51-131.5s-131.5,59-131.5,131.5Z" transform="translate(-116.79 -118.68)"/><circle class="cls-2" cx="255.59" cy="228.86" r="5.01"/><path class="cls-1" d="M372.38,357.36a9.82,9.82,0,1,1,9.82-9.82A9.84,9.84,0,0,1,372.38,357.36Zm0-10a.21.21,0,0,0-.21.21c0,.24.43.24.43,0A.21.21,0,0,0,372.38,347.33Z" transform="translate(-116.79 -118.68)"/><circle class="cls-2" cx="179.02" cy="264.9" r="5.01"/><path class="cls-1" d="M295.81,393.39a9.81,9.81,0,1,1,9.81-9.81A9.82,9.82,0,0,1,295.81,393.39Zm0-10a.21.21,0,0,0-.21.21c0,.24.43.24.43,0A.21.21,0,0,0,295.81,383.37Z" transform="translate(-116.79 -118.68)"/><circle class="cls-2" cx="357.62" cy="249.86" r="5.01"/><path class="cls-1" d="M474.41,378.35a9.81,9.81,0,1,1,9.81-9.81A9.82,9.82,0,0,1,474.41,378.35Zm0-10a.21.21,0,0,0-.22.21c0,.24.43.24.43,0A.21.21,0,0,0,474.41,368.33Z" transform="translate(-116.79 -118.68)"/><circle class="cls-2" cx="224.9" cy="197.51" r="5.01"/><path class="cls-1" d="M341.69,326a9.81,9.81,0,1,1,9.81-9.81A9.82,9.82,0,0,1,341.69,326Zm0-10a.21.21,0,0,0-.21.22c0,.24.43.23.43,0A.22.22,0,0,0,341.69,316Z" transform="translate(-116.79 -118.68)"/><circle class="cls-2" cx="265.62" cy="182.81" r="5.01"/><path class="cls-1" d="M382.41,311.3a9.81,9.81,0,1,1,9.81-9.81A9.82,9.82,0,0,1,382.41,311.3Zm0-10a.21.21,0,0,0-.21.21c0,.24.43.24.43,0A.21.21,0,0,0,382.41,301.28Z" transform="translate(-116.79 -118.68)"/><circle class="cls-2" cx="224.9" cy="259.89" r="5.01"/><path class="cls-1" d="M341.69,388.38a9.81,9.81,0,1,1,9.81-9.81A9.82,9.82,0,0,1,341.69,388.38Zm0-10a.21.21,0,0,0-.21.22c0,.24.43.24.43,0A.22.22,0,0,0,341.69,378.35Z" transform="translate(-116.79 -118.68)"/><circle class="cls-2" cx="195.17" cy="228.86" r="5.01"/><path class="cls-1" d="M312,357.36a9.82,9.82,0,1,1,9.81-9.82A9.83,9.83,0,0,1,312,357.36Zm0-10a.21.21,0,0,0-.21.21c0,.24.43.24.43,0A.21.21,0,0,0,312,347.33Z" transform="translate(-116.79 -118.68)"/><path class="cls-6" d="M523.1,434.11v31.71a8.73,8.73,0,1,1-17.46,0v-7.18a8.76,8.76,0,0,0-8.73-8.73h0a8.76,8.76,0,0,0-8.73,8.73V479.2a8.73,8.73,0,1,1-17.46,0V452.89a8.73,8.73,0,0,0-17.46,0v12.93a8.76,8.76,0,0,1-8.73,8.73h0a8.76,8.76,0,0,1-8.73-8.73V434.11Z" transform="translate(-116.79 -118.68)"/><path class="cls-1" d="M479.42,492.73a13.55,13.55,0,0,1-13.53-13.53V452.89A3.93,3.93,0,0,0,462,449a3.93,3.93,0,0,0-3.93,3.93v12.93a13.54,13.54,0,0,1-27.08,0V434.11a4.79,4.79,0,0,1,4.79-4.8H523.1a4.8,4.8,0,0,1,4.8,4.8v31.71a13.53,13.53,0,0,1-27.06,0v-7.18a3.95,3.95,0,0,0-7.89,0V479.2A13.55,13.55,0,0,1,479.42,492.73ZM462,439.36a13.52,13.52,0,0,1,13.53,13.53V479.2a3.93,3.93,0,0,0,7.86,0V458.64a13.55,13.55,0,0,1,27.09,0v7.18a3.93,3.93,0,0,0,7.86,0V438.9H440.54v26.92a3.95,3.95,0,0,0,7.89,0V452.89A13.55,13.55,0,0,1,462,439.36Z" transform="translate(-116.79 -118.68)"/><text class="cls-7" transform="translate(0 492.89)">BURGUER BÃO</text></svg>