<svg xmlns="http://www.w3.org/2000/svg" viewBox="0 0 3121.23 1372.97"><defs><style>.cls-1,.cls-4,.cls-5{fill:#f60;}.cls-2{fill:#093;}.cls-3{fill:red;}.cls-4{fill-rule:evenodd;}.cls-5{font-size:773.56px;font-family:BebasNeue-Regular, Bebas Neue;}.cls-6{fill:#fff;}</style></defs><g id="Camada_2" data-name="Camada 2"><g id="Layer_1" data-name="Layer 1"><path class="cls-1" d="M263.82,651c50.69-18.52,113.08-30.64,189.37-30.64S591.9,632.44,642.59,651c65.15,23.82,110.91,58.22,142.06,91.18,23.47,24.84,41.12,58.25,49.18,88.49,4.51,16.88,6.08,33,4.1,46.65-2.27,15.9-9.27,28.58-21.77,35.89a46.27,46.27,0,0,1-23.62,6H113.87a46.4,46.4,0,0,1-23.64-6c-12.48-7.27-19.48-20-21.78-35.89-2-13.56-.38-29.77,4.13-46.65,8.06-30.24,25.71-63.65,49.18-88.49,31.15-33,76.91-67.36,142.06-91.18m189.37-3.27c-72.95,0-132.21,11.44-180.07,28.92-60.46,22.11-102.77,53.86-131.48,84.24-20.37,21.56-35.7,50.51-42.67,76.71-3.6,13.48-4.92,25.94-3.47,35.89,1.11,7.66,3.83,13.4,8.42,16.08,2.45,1.44,5.74,2.21,10,2.21H792.54c4.21,0,7.5-.77,10-2.21,4.59-2.68,7.31-8.42,8.42-16.08,1.42-10,.1-22.41-3.47-35.89-7-26.2-22.3-55.15-42.67-76.71-28.71-30.38-71-62.13-131.5-84.24C585.43,659.13,526.17,647.69,453.19,647.69Z"/><path class="cls-2" d="M83.66,996.27a13.7,13.7,0,0,1,0-27.39c16.37,0,30.94-6.38,44.86-12.5,15.34-6.72,30-13.14,47.53-13.14,19,0,36,10,53.09,20,13.76,8,27.51,16.12,39.3,16.12s25.53-8.09,39.29-16.12c17.06-10,34.08-20,53.1-20s36,10,53.07,20c13.76,8,27.52,16.12,39.29,16.12s25.56-8.09,39.32-16.12c17-10,34.09-20,53.09-20s36,10,53.08,20c13.74,8,27.51,16.12,39.29,16.12s25.54-8.09,39.3-16.12c17.05-10,34.08-20,53.09-20,17.14,0,30.09,6,44.08,12.55,13.48,6.25,28.18,13.09,48.31,13.09a13.7,13.7,0,0,1,0,27.39c-26.15,0-43.74-8.21-59.85-15.69-11.13-5.19-21.42-10-32.54-10-11.78,0-25.54,8.08-39.29,16.15-17.05,10-34.09,20-53.1,20s-36-10-53.07-20c-13.76-8.07-27.51-16.15-39.3-16.15s-25.56,8.08-39.31,16.15c-17,10-34.07,20-53.1,20s-36-10-53.07-20c-13.76-8.07-27.51-16.15-39.29-16.15s-25.54,8.08-39.3,16.15c-17,10-34.09,20-53.09,20s-36-10-53.1-20c-13.73-8.07-27.51-16.15-39.29-16.15-12,0-24,5.31-36.62,10.84-16.56,7.23-33.87,14.84-55.77,14.84"/><path class="cls-3" d="M122,1109.22h215.8c-41.06-29.47-81.33-54.35-117.18-54.35v0H122v0c-13,0-21.18,6.81-24.69,15.57a32.25,32.25,0,0,0,0,23.26c3.51,8.72,11.72,15.52,24.69,15.52m250.14,25.22a13.54,13.54,0,0,1-7.34,2.17H122c-25.92,0-42.64-14.37-50-32.75a58.91,58.91,0,0,1,0-43.59c7.38-18.37,24.1-32.74,50-32.74v0h98.62v0c52.94,0,107.33,40.27,161.7,80.55,23.8,17.6,47.59,35.2,70.54,48.86,22.92-13.66,46.71-31.26,70.5-48.86,54.38-40.28,108.77-80.55,161.71-80.55v0h98.62v0c25.94,0,42.63,14.33,50,32.74a58.68,58.68,0,0,1,0,43.55c-7.38,18.42-24.09,32.79-50,32.79H584.6a13.7,13.7,0,0,1,0-27.39H783.71c13,0,21.18-6.8,24.69-15.52a31.88,31.88,0,0,0,2.15-11.65,31.44,31.44,0,0,0-2.15-11.61c-3.51-8.76-11.72-15.57-24.69-15.57v0H685.09v0c-44.06,0-94.77,37.55-145.46,75.11-26.58,19.64-53.14,39.33-79.82,54.43a13.67,13.67,0,0,1-13.63.17C421.45,1170.59,396.8,1152.69,372.16,1134.44Z"/><path class="cls-3" d="M565.89,1027.53a13.67,13.67,0,1,1,0,27.34H429.53a13.67,13.67,0,1,1,0-27.34Z"/><path class="cls-1" d="M807.89,1311v-42.1H98.52V1311a28.37,28.37,0,0,0,8.38,20.12l0,0a28.62,28.62,0,0,0,20.18,8.38H779.35a28.39,28.39,0,0,0,20.14-8.34l.06-.08a28.35,28.35,0,0,0,8.34-20.12m27.36-55.79V1311a55.79,55.79,0,0,1-16.41,39.42l0,0h0l0,0a55.84,55.84,0,0,1-39.4,16.37H127.06a55.72,55.72,0,0,1-39.45-16.41h0A55.7,55.7,0,0,1,71.15,1311v-55.79a13.67,13.67,0,0,1,13.68-13.65H821.56A13.67,13.67,0,0,1,835.25,1255.22Z"/><path class="cls-2" d="M88.78,1207.55a13.7,13.7,0,0,1,0-27.39H403.69a13.7,13.7,0,1,1,0,27.39Z"/><path class="cls-2" d="M525.26,1207.55a13.7,13.7,0,0,1,0-27.39h42.63a13.7,13.7,0,0,1,0,27.39Z"/><path class="cls-2" d="M615.6,1207.55a13.7,13.7,0,0,1,0-27.39H798.81a13.7,13.7,0,0,1,0,27.39Z"/><path class="cls-3" d="M385.22,1027.53a13.67,13.67,0,1,1,0,27.34H348.6a13.67,13.67,0,1,1,0-27.34Z"/><path class="cls-4" d="M380,712.23A13.76,13.76,0,1,1,366.25,726,13.75,13.75,0,0,1,380,712.23"/><path class="cls-4" d="M316.43,756.13a13.77,13.77,0,1,1-13.76,13.76,13.76,13.76,0,0,1,13.76-13.76"/><path class="cls-4" d="M281.68,701.89a15.57,15.57,0,1,1-15.58,15.56,15.58,15.58,0,0,1,15.58-15.56"/><path class="cls-4" d="M363,807.28a12.55,12.55,0,1,1-12.55,12.55A12.54,12.54,0,0,1,363,807.28"/><path class="cls-4" d="M321,852.83a9.83,9.83,0,1,1-9.85,9.82,9.85,9.85,0,0,1,9.85-9.82"/><path class="cls-4" d="M257.42,792.35a17.55,17.55,0,1,1-17.54,17.53,17.55,17.55,0,0,1,17.54-17.53"/><path class="cls-3" d="M40.92,894.89a13.66,13.66,0,1,1-25.22,10.5C-3.65,859.08-3.82,813.07,8.15,769.76c14.14-51.14,45.29-98.19,81.59-137.17,35.17-37.76,67.32-75,79.82-116.48,12.19-40.42,5.89-86.5-34.51-144.1a13.62,13.62,0,0,1,10.34-21.39l0,0c47.46-3.06,80.44,9.52,105.17,29.81,24.16,19.82,39.57,46.4,53,72.63,3.45,6.73,5.7,11.28,7.93,15.8,7.83,15.86,15.53,31.41,24.29,43.91a68.27,68.27,0,0,0,51.35,28.84A65.1,65.1,0,0,0,416.66,537a48.72,48.72,0,0,0,21.41-16.66c8.09-11.45,11.21-27.75,5.77-48.57-8-30.68-22.73-55.18-36.74-78.55-14.93-24.9-29.18-48.63-35.58-78.35-13.39-62,3.28-113,38.19-154.61,40.93-48.78,107-83.88,178.06-108.27A13.67,13.67,0,0,1,604,71.94c-72.23,129.09,10.82,216,107,316.53,115.9,121.24,249.73,261.22,176.46,514.62a13.63,13.63,0,1,1-26.17-7.61C930.09,657.24,802,523.28,691.13,407.26,595,306.75,511.07,218.89,564.91,89.68,510.52,111.6,462,140.49,430.65,177.83c-29.64,35.3-43.8,78.61-32.42,131.31,5.48,25.47,18.56,47.26,32.28,70.12,15,25,30.68,51.14,39.72,85.69,7.71,29.5,2.63,53.5-9.83,71.13a75.91,75.91,0,0,1-33.28,26.17,92.29,92.29,0,0,1-42,6.59,95.33,95.33,0,0,1-71.74-40.39c-9.93-14.14-18.1-30.67-26.43-47.53-2.91-5.89-5.85-11.82-7.72-15.48-12.06-23.56-25.73-47.31-46-64-15.39-12.63-35.14-21.5-61.89-23.56,33.36,56.05,37.29,103.28,24.41,146-14.19,47.05-48.52,87-86,127.28C76.07,687.33,47.3,730.6,34.46,777c-10.45,37.73-10.3,77.7,6.46,117.85"/><path class="cls-3" d="M235.37,225.15c4.45,16,14.12,31.42,28.56,46.14-.53-25.35,9.89-48.66,20.8-72.94,9.39-21,19.2-42.87,21-66.62,2.15-28.79-7.23-51-20.2-68.15A139.86,139.86,0,0,0,267.72,44.3c5.25,26.83,6.31,63.79-18.8,106.61-15.74,26.86-19.84,51.55-13.55,74.24m40.13,85.92c-32.73-24.09-53.95-50.67-62.05-79.86-7.95-28.71-3.17-59.29,15.88-91.78,28.71-49,17-89.94,10.49-112.72-.85-3-1.64-5.69-2.51-9.37A11.35,11.35,0,0,1,254.89,5.43v0c14.1,9.93,33.39,24.05,48.82,44.46,15.89,21,27.39,48.25,24.71,83.54-2.08,27.62-12.72,51.38-22.94,74.19-13.63,30.39-26.43,59-12.49,89.9a11.38,11.38,0,0,1-17.49,13.57Z"/><text class="cls-5" transform="translate(977.19 657.52)">BURGUER</text><path class="cls-1" d="M1001.25,738.94H1313q159.62,0,232.86,35.28t73.25,108.48v25q0,48.24-32.87,78.6t-100.47,43.75v1.78q154,25,154,130.39v53.58q0,72.33-79.81,110.28t-233.81,38h-324.9Zm287.33,254.5q62,0,93-15.17t31-50.91V892.53q0-33.93-25.36-49.11t-79.82-15.19h-99.53V993.44Zm37.57,281.29q54.46,0,80.75-13.84t26.29-47.78v-54.47q0-42.84-31-59.37t-102.36-16.54h-92v192Z"/><path class="cls-1" d="M1919.46,738.94h279.82L2413.38,1364H2206.8l-37.56-124.12v1.78H1934.49L1896.92,1364H1705.36Zm225.36,417.92-92-309H2049l-90.14,309Z"/><path class="cls-1" d="M2574.73,1331.89Q2494,1290.84,2494,1215.8V887.17q0-75,80.75-116.09T2807.6,730q152.12,0,232.88,41.08t80.75,116.09V1215.8q0,75-80.75,116.09T2807.6,1373Q2655.5,1373,2574.73,1331.89Zm339.92-109.84V880.92q0-61.62-107.05-61.62t-107,61.62v341.13q0,61.6,107,61.61T2914.65,1222.05Z"/><path class="cls-6" d="M1818.09,686.26q35.67-38.38,77-56.7T1989,611.25q33.8,0,59.14,4.47a535.44,535.44,0,0,1,53.53,12.5q16.89,4.47,32.86,8a141.82,141.82,0,0,0,31,3.57q22.51,0,39.43-8t35.69-26.8l99.53,28.58q-35.68,38.42-77,56.72t-93.9,18.29q-33.8,0-59.16-4.47a529,529,0,0,1-53.51-12.5q-16.94-4.46-32.88-8a142.43,142.43,0,0,0-31-3.58q-22.56,0-39.44,8t-35.69,26.78Z"/></g></g></svg>