<svg xmlns="http://www.w3.org/2000/svg" viewBox="0 0 162.79 84.46"><defs><style>.cls-1,.cls-3,.cls-4{fill:#fff;}.cls-2{fill:#2b2b2b;}.cls-3{font-size:30.74px;font-family:BebasNeue-Regular, Bebas Neue;letter-spacing:0.06em;}.cls-4{font-size:33.43px;font-family:ComicSansMS, Comic Sans MS;letter-spacing:0.1em;}.cls-5{fill:none;stroke:#fff;stroke-linecap:round;stroke-linejoin:round;stroke-width:3.8px;}</style></defs><g id="Camada_2" data-name="Camada 2"><g id="OBJECTS"><path class="cls-1" d="M.24,66.36A11.81,11.81,0,0,1,8,61.73a5.27,5.27,0,0,1,2.83.86c3.11,1.66,3.55,2.51,5.92-1.26a6.36,6.36,0,0,1,1-1.18,1.77,1.77,0,0,1,2.69-.26c1.12,1,2.16,2.12,3.19,3.23,1.62,1.76,2.59,1.76,4.24.08A26,26,0,0,1,31,60.3a5.29,5.29,0,0,1,6.64.46c.61.55,1.16,1.19,1.73,1.79,1.42,1.45,2.59,1.71,4.33.69a42.2,42.2,0,0,0,3.86-2.68c2.19-1.62,3.26-1.58,5.12.41.95,1,1.76,2.14,2.7,3.16,1.16,1.27,1.72,1.17,3.23.34A8.73,8.73,0,0,1,62,63.53c1-.08,1.43.74.86,1.6A8.67,8.67,0,0,1,58.05,69a3.38,3.38,0,0,1-3.63-1.1,33.84,33.84,0,0,0-2.49-2.59c-1.18-1.05-2.21-1-3.46,0s-2.32,2.26-3.59,3.25a4.63,4.63,0,0,1-2.57,1.17,5.41,5.41,0,0,1-2.94-1.15,33.27,33.27,0,0,1-2.74-2.93c-1.33-1.33-2.47-1.33-4.07-.3a28,28,0,0,1-4.18,2.39,5.77,5.77,0,0,1-6.72-1.4c-1.74-1.73-2.5-1.84-4.37-.22a5.44,5.44,0,0,1-6.76.66,5,5,0,0,0-5-.18A6.11,6.11,0,0,1,.24,66.36Z"/><path class="cls-1" d="M2,58.86A7,7,0,0,1,4.79,57a3,3,0,0,1,3.39,1L9,59l6.52-.2c.5-.53,1-1,1.55-1.52A4.21,4.21,0,0,1,19.38,56a4.73,4.73,0,0,1,2.75,1.11,9.68,9.68,0,0,1,1.33,1.38l8-.24c.29-.17.59-.33.89-.47a4.91,4.91,0,0,1,5.08.29l7.41-.22a4.29,4.29,0,0,1,2.41-.08l9.86-.29a3.28,3.28,0,0,0,3-3.47l0-1.27a3.27,3.27,0,0,0-3.23-3.28L3,51.12a3.27,3.27,0,0,0-3,3.47l0,1.26A3.39,3.39,0,0,0,2,58.86Z"/><path class="cls-1" d="M18.53,47.71,4.6,48.13A1.18,1.18,0,0,1,3.39,47l-.05-1.81A1.17,1.17,0,0,1,4.48,44l13.92-.42a1.17,1.17,0,0,1,1.21,1.14l.06,1.81A1.19,1.19,0,0,1,18.53,47.71Z"/><path class="cls-1" d="M38.49,48.63l-13.92.42a1.18,1.18,0,0,1-1.21-1.14L23.3,46.1a1.18,1.18,0,0,1,1.14-1.21l13.93-.42a1.17,1.17,0,0,1,1.21,1.14l.05,1.81A1.18,1.18,0,0,1,38.49,48.63Z"/><path class="cls-1" d="M57.93,46,44,46.38a1.18,1.18,0,0,1-1.21-1.14l-.06-1.81a1.18,1.18,0,0,1,1.15-1.21L57.8,41.8A1.17,1.17,0,0,1,59,42.94l.06,1.81A1.19,1.19,0,0,1,57.93,46Z"/><path class="cls-1" d="M56.32,71.28l-48.27.61c-2.79,0-4.37,2.12-2.67,3.55a29,29,0,0,0,7,4.28,4.73,4.73,0,0,0,2,.41l35.8-.45a4.83,4.83,0,0,0,2-.46,29.41,29.41,0,0,0,6.92-4.45C60.75,73.3,59.12,71.25,56.32,71.28Z"/><path class="cls-1" d="M56.86,38.72A26.14,26.14,0,0,0,50,26.05l.12-.06a.68.68,0,0,0,.33-.91c-.19-.37-.5-.28-.84-.08a.9.9,0,0,0-.38.33A21.11,21.11,0,0,0,43.92,22c.07-.64-.41-.86-1-.95a1.19,1.19,0,0,0-1,.15,33.59,33.59,0,0,0-11.8-1.54h-.25a1,1,0,0,0-.11-.61c-.3-.6-.82-.46-1.37-.14s-.75.54-.75.92a30.52,30.52,0,0,0-6.78,1.54,1.25,1.25,0,0,0-.9-.55c-.62-.16-1.15-.15-1.29.52a1,1,0,0,0,.16.83,30.13,30.13,0,0,0-8,5.1.84.84,0,0,0-.06-.14c-.18-.36-.49-.28-.83-.08s-.58.44-.39.8a.54.54,0,0,0,.33.29,29.79,29.79,0,0,0-6.07,8.31c-1.43,2.91.55,6.43,3.62,6.44l48.73-3.11A.8.8,0,0,0,56.86,38.72Z"/><path class="cls-2" d="M13.28,30a1.11,1.11,0,0,1-.55,1.5,1,1,0,0,1-1.47-.31c-.3-.61.08-1,.64-1.32S13,29.37,13.28,30Z"/><path class="cls-2" d="M30,26.5A1.1,1.1,0,0,1,29.4,28a1,1,0,0,1-1.47-.31c-.3-.6.08-1,.64-1.32S29.64,25.9,30,26.5Z"/><path class="cls-2" d="M23.94,28.6a1.1,1.1,0,0,1-.54,1.5,1,1,0,0,1-1.47-.32c-.31-.6.08-1,.64-1.31S23.64,28,23.94,28.6Z"/><path class="cls-2" d="M43.93,26.08a1.11,1.11,0,0,1-.54,1.5,1,1,0,0,1-1.47-.31c-.31-.6.08-1,.63-1.32S43.62,25.48,43.93,26.08Z"/><path class="cls-2" d="M24.67,24.51c-.45.48-1.05.32-1.49-.17a1.12,1.12,0,0,1-.13-1.6c.45-.48.91-.18,1.35.31S25.12,24,24.67,24.51Z"/><path class="cls-2" d="M18.67,25.58a1,1,0,0,1-1.28.84,1.05,1.05,0,0,1-1-1.2c.09-.67.62-.74,1.24-.64S18.75,24.9,18.67,25.58Z"/><path class="cls-2" d="M35.05,23.43a1,1,0,0,1-1.27.84,1.06,1.06,0,0,1-1-1.2c.09-.67.62-.73,1.25-.64S35.14,22.75,35.05,23.43Z"/><path class="cls-2" d="M51.15,31.26a1,1,0,0,1-1.27.84,1.06,1.06,0,0,1-1-1.2c.09-.68.62-.74,1.25-.64S51.24,30.58,51.15,31.26Z"/><path class="cls-2" d="M34.1,30.08a1,1,0,0,1-1.27.84,1.06,1.06,0,0,1-1-1.2c.09-.67.62-.73,1.25-.63S34.19,29.4,34.1,30.08Z"/><text class="cls-3" transform="translate(59.32 43.58) rotate(0.04) scale(0.98 1)">BURGUER</text><text class="cls-4" transform="translate(75.75 74.03) rotate(-0.67) scale(0.98 1)">Bão</text><path class="cls-5" d="M9.26,21A19.89,19.89,0,0,1,20.13,10.33a19.59,19.59,0,0,1,22.22,5.5,31.6,31.6,0,0,1,48.21,2.49,38.53,38.53,0,0,1,67.6,8.54c7.89,20.27-1.88,43.2-21.81,51.23H120.53"/></g></g></svg>